<svg width="33" height="32" viewBox="0 0 33 32" fill="none" xmlns="http://www.w3.org/2000/svg">
<g clip-path="url(#clip0_239_1278)">
<path d="M17.0001 29.3334C24.3639 29.3334 30.3334 23.3638 30.3334 16C30.3334 8.63622 24.3639 2.66669 17.0001 2.66669C9.63628 2.66669 3.66675 8.63622 3.66675 16C3.66675 23.3638 9.63628 29.3334 17.0001 29.3334Z" stroke="#FDEFDA" stroke-width="2" stroke-linecap="round" stroke-linejoin="round"/>
<path d="M3.66675 16H30.3334" stroke="#FDEFDA" stroke-width="2" stroke-linecap="round" stroke-linejoin="round"/>
<path d="M17.0001 2.66669C20.3351 6.31782 22.2304 11.0561 22.3334 16C22.2304 20.944 20.3351 25.6822 17.0001 29.3334C13.665 25.6822 11.7697 20.944 11.6667 16C11.7697 11.0561 13.665 6.31782 17.0001 2.66669Z" stroke="#FDEFDA" stroke-width="2" stroke-linecap="round" stroke-linejoin="round"/>
</g>
<defs>
<clipPath id="clip0_239_1278">
<rect width="32" height="32" fill="white" transform="translate(0.5)"/>
</clipPath>
</defs>
</svg>
