<svg width="106" height="33" viewBox="0 0 106 33" fill="none" xmlns="http://www.w3.org/2000/svg">
<path d="M12.5298 22.7375H10.3235C10.2787 22.7375 10.2424 22.7739 10.2424 22.8187V25.011C10.2424 25.0559 10.2787 25.0922 10.3235 25.0922H12.5298C12.5746 25.0922 12.611 25.0559 12.611 25.011V22.8187C12.611 22.7739 12.5746 22.7375 12.5298 22.7375Z" fill="white"/>
<path d="M32.4204 16.6479H30.2142C30.1694 16.6479 30.133 16.6843 30.133 16.7291V18.9214C30.133 18.9663 30.1694 19.0026 30.2142 19.0026H32.4204C32.4653 19.0026 32.5016 18.9663 32.5016 18.9214V16.7291C32.5016 16.6843 32.4653 16.6479 32.4204 16.6479Z" fill="white"/>
<path d="M24.7662 11.4392V14.5479C24.7662 14.5927 24.7298 14.6291 24.685 14.6291H22.4785C22.4338 14.6291 22.3973 14.5927 22.3973 14.5479V13.8078C22.3973 13.3269 22.0074 12.9372 21.5268 12.9372H20.7878C20.7431 12.9372 20.7067 12.9008 20.7067 12.8561V10.6495C20.7067 10.6048 20.7431 10.5684 20.7878 10.5684H23.8954C24.3763 10.5684 24.7659 10.9583 24.7659 11.4389L24.7662 11.4392Z" fill="white"/>
<path d="M24.7662 16.7375V19.0999C24.7662 22.4095 22.0833 25.0925 18.7736 25.0925H14.7194C14.6747 25.0925 14.6382 25.0561 14.6382 25.0113V22.8048C14.6382 22.7601 14.6747 22.7236 14.7194 22.7236H18.8548C18.883 22.7236 18.9108 22.7233 18.9384 22.7224C20.8536 22.6777 22.3976 21.1061 22.3976 19.1805V19.0958C22.3976 19.051 22.3612 19.0146 22.3164 19.0146H18.7609C18.7161 19.0146 18.6797 18.9781 18.6797 18.9334V16.7369C18.6797 16.6922 18.7161 16.6558 18.7609 16.6558H24.685C24.7298 16.6558 24.7662 16.6922 24.7662 16.7369V16.7375Z" fill="white"/>
<path d="M18.6797 10.6499V12.8564C18.6797 12.9012 18.6433 12.9376 18.5985 12.9376H15.8877V12.9412C14.0575 13.0778 12.6107 14.6102 12.6107 16.4748V20.6301C12.6107 20.6748 12.5742 20.7113 12.5295 20.7113H10.323C10.2782 20.7113 10.2418 20.6748 10.2418 20.6301V10.6505C10.2418 10.6058 10.2782 10.5693 10.323 10.5693H12.5295C12.5742 10.5693 12.6107 10.6058 12.6107 10.6505V11.5859C12.6107 11.6517 12.6847 11.6902 12.7384 11.652C13.6355 11.0144 14.7179 10.6212 15.8877 10.5693H18.5985C18.6433 10.5693 18.6797 10.6058 18.6797 10.6505V10.6499Z" fill="white"/>
<path d="M39.6151 25.0823H37.8684V10.5688H43.6489C44.9241 10.5688 45.9185 10.9223 46.6326 11.6293C47.3464 12.3363 47.7034 13.3552 47.7034 14.6859C47.7034 15.7534 47.4572 16.6302 46.9653 17.3161C46.4732 18.0023 45.749 18.4566 44.7926 18.6782L48.1194 25.0823H46.144L43.0041 18.8444H39.6148V25.0823H39.6151ZM43.6489 17.3475C44.3419 17.3475 44.8788 17.1677 45.2604 16.8068C45.6415 16.4465 45.8323 15.9336 45.8323 15.2681V14.1869C45.8323 13.5214 45.6415 13.0088 45.2604 12.6483C44.8791 12.288 44.3419 12.1075 43.6489 12.1075H39.6151V17.3472H43.6489V17.3475Z" fill="white"/>
<path d="M54.7315 25.3317C53.9967 25.3317 53.3348 25.1999 52.7458 24.9368C52.1564 24.6736 51.6507 24.2959 51.2278 23.8034C50.8047 23.3116 50.4794 22.7222 50.2507 22.036C50.0219 21.3498 49.9075 20.5773 49.9075 19.7175C49.9075 18.8576 50.0219 18.1027 50.2507 17.4093C50.4794 16.7163 50.805 16.1237 51.2278 15.6316C51.6507 15.1397 52.1564 14.7619 52.7458 14.4982C53.3348 14.2351 53.9967 14.1033 54.7315 14.1033C55.4664 14.1033 56.0969 14.2345 56.6652 14.497C57.2335 14.7596 57.7185 15.1225 58.1206 15.585C58.5224 16.0476 58.8308 16.5969 59.0459 17.2322C59.2607 17.8677 59.3683 18.5652 59.3683 19.3249V20.1125H51.6539V20.6114C51.6539 21.0689 51.7268 21.4953 51.8723 21.8902C52.0178 22.2852 52.2258 22.6283 52.496 22.9196C52.7662 23.2105 53.099 23.4393 53.4942 23.6058C53.8892 23.772 54.3363 23.8553 54.8353 23.8553C55.5144 23.8553 56.107 23.6962 56.613 23.377C57.1188 23.0582 57.5105 22.6008 57.7878 22.0046L58.973 22.8627C58.6264 23.6022 58.0856 24.1984 57.3511 24.6514C56.6163 25.1048 55.7428 25.3314 54.7313 25.3314L54.7315 25.3317ZM54.7315 15.4968C54.2741 15.4968 53.8584 15.5762 53.4838 15.7347C53.1096 15.8932 52.7872 16.1172 52.517 16.4064C52.2468 16.6956 52.0353 17.0366 51.883 17.4292C51.7304 17.8221 51.6542 18.2526 51.6542 18.721V18.8656H57.5801V18.6381C57.5801 17.6876 57.3203 16.9267 56.8003 16.3548C56.2806 15.783 55.5908 15.497 54.7313 15.497L54.7315 15.4968Z" fill="white"/>
<path d="M71.6779 22.9809H71.6154C71.435 23.6547 70.995 24.215 70.2951 24.6615C69.595 25.1083 68.6904 25.3317 67.5816 25.3317C66.6942 25.3317 65.8797 25.1688 65.1384 24.8431C64.3967 24.5175 63.7624 24.0393 63.2358 23.4085C62.7087 22.778 62.2966 21.9945 61.9988 21.0588C61.7004 20.1231 61.5517 19.0455 61.5517 17.8257C61.5517 16.6058 61.6972 15.5489 61.9884 14.6132C62.2794 13.6775 62.6954 12.8947 63.2361 12.2636C63.7769 11.6331 64.4281 11.1513 65.1908 10.8185C65.9529 10.4858 66.7988 10.3196 67.7277 10.3196C69.0305 10.3196 70.1188 10.6076 70.9923 11.1824C71.8655 11.7578 72.5378 12.5234 73.0092 13.4799L71.5745 14.3531C71.2418 13.5768 70.7461 12.967 70.0877 12.5231C69.429 12.0796 68.6427 11.8577 67.7277 11.8577C67.0901 11.8577 66.5078 11.9726 65.981 12.202C65.4539 12.4313 65.0003 12.7548 64.619 13.172C64.2376 13.5895 63.9431 14.0905 63.7354 14.6745C63.5274 15.2585 63.4234 15.9125 63.4234 16.6357V18.9937C63.4234 19.7169 63.5274 20.3741 63.7354 20.9655C63.9434 21.5569 64.2376 22.0609 64.619 22.4781C65 22.8956 65.4678 23.2191 66.0225 23.4485C66.5769 23.6778 67.2006 23.7925 67.8939 23.7925C68.3929 23.7925 68.8676 23.7264 69.3182 23.5942C69.7686 23.4621 70.1636 23.2636 70.5034 22.999C70.843 22.7344 71.1096 22.4037 71.304 22.0067C71.4981 21.6097 71.595 21.14 71.595 20.5966V19.1554H68.3929V17.6168H73.3001V25.0814H71.6782V22.98L71.6779 22.9809Z" fill="white"/>
<path d="M80.5979 25.3317C79.8631 25.3317 79.2012 25.1999 78.6121 24.9368C78.0228 24.6736 77.517 24.2959 77.0942 23.8034C76.6711 23.3116 76.3458 22.7222 76.117 22.036C75.8883 21.3498 75.7739 20.5773 75.7739 19.7175C75.7739 18.8576 75.8883 18.1027 76.117 17.4093C76.3458 16.7163 76.6714 16.1237 77.0942 15.6316C77.517 15.1397 78.0228 14.7619 78.6121 14.4982C79.2012 14.2351 79.8631 14.1033 80.5979 14.1033C81.3327 14.1033 81.9633 14.2345 82.5315 14.497C83.0998 14.7596 83.5849 15.1225 83.987 15.585C84.3887 16.0476 84.6972 16.5969 84.9123 17.2322C85.1271 17.8677 85.2347 18.5652 85.2347 19.3249V20.1125H77.5203V20.6114C77.5203 21.0689 77.5932 21.4953 77.7387 21.8902C77.8841 22.2852 78.0921 22.6283 78.3624 22.9196C78.6326 23.2105 78.9653 23.4393 79.3606 23.6058C79.7555 23.772 80.2027 23.8553 80.7016 23.8553C81.3807 23.8553 81.9733 23.6962 82.4794 23.377C82.9852 23.0582 83.3769 22.6008 83.6542 22.0046L84.8394 22.8627C84.4927 23.6022 83.952 24.1984 83.2175 24.6514C82.4827 25.1048 81.6092 25.3314 80.5976 25.3314L80.5979 25.3317ZM80.5979 15.4968C80.1404 15.4968 79.7247 15.5762 79.3502 15.7347C78.976 15.8932 78.6536 16.1172 78.3834 16.4064C78.1132 16.6956 77.9016 17.0366 77.7493 17.4292C77.5967 17.8221 77.5206 18.2526 77.5206 18.721V18.8656H83.4465V18.6381C83.4465 17.6876 83.1867 16.9267 82.6667 16.3548C82.147 15.783 81.4572 15.497 80.5976 15.497L80.5979 15.4968Z" fill="white"/>
<path d="M87.9795 25.0822V14.353H89.643V16.0798H89.7262C89.9893 15.4763 90.3603 14.9957 90.8385 14.6389C91.3167 14.2822 91.9579 14.1035 92.7618 14.1035C93.8705 14.1035 94.7476 14.4606 95.392 15.1743C96.0364 15.8884 96.3588 16.897 96.3588 18.1998V25.0825H94.6954V18.4768C94.6954 16.5456 93.8844 15.5803 92.2625 15.5803C91.9298 15.5803 91.6074 15.622 91.2957 15.7053C90.9837 15.7888 90.7031 15.9139 90.4536 16.0807C90.2041 16.2475 90.0065 16.4591 89.861 16.7163C89.7155 16.9731 89.6427 17.2754 89.6427 17.6226V25.0828H87.9793L87.9795 25.0822Z" fill="white"/>
</svg>
