<svg width="150" height="34" viewBox="0 0 150 34" fill="none" xmlns="http://www.w3.org/2000/svg">
<g clip-path="url(#clip0_239_1262)">
<path d="M17.0789 25.322H13.9214C13.8572 25.322 13.8052 25.374 13.8052 25.4382V28.5758C13.8052 28.64 13.8572 28.692 13.9214 28.692H17.0789C17.1431 28.692 17.1951 28.64 17.1951 28.5758V25.4382C17.1951 25.374 17.1431 25.322 17.0789 25.322Z" fill="black"/>
<path d="M45.5464 16.6067H42.3889C42.3247 16.6067 42.2727 16.6587 42.2727 16.7229V19.8605C42.2727 19.9247 42.3247 19.9767 42.3889 19.9767H45.5464C45.6106 19.9767 45.6626 19.9247 45.6626 19.8605V16.7229C45.6626 16.6587 45.6106 16.6067 45.5464 16.6067Z" fill="black"/>
<path d="M34.5918 9.15177V13.601C34.5918 13.665 34.5396 13.7172 34.4756 13.7172H31.3176C31.2536 13.7172 31.2014 13.665 31.2014 13.601V12.5417C31.2014 11.8534 30.6434 11.2958 29.9555 11.2958H28.8979C28.8339 11.2958 28.7817 11.2437 28.7817 11.1796V8.02165C28.7817 7.95762 28.8339 7.90546 28.8979 7.90546H33.3455C34.0337 7.90546 34.5914 8.46352 34.5914 9.15134L34.5918 9.15177Z" fill="black"/>
<path d="M34.5919 16.7349V20.1159C34.5919 24.8527 30.752 28.6925 26.0153 28.6925H20.2129C20.1488 28.6925 20.0967 28.6404 20.0967 28.5763V25.4184C20.0967 25.3543 20.1488 25.3022 20.2129 25.3022H26.1315C26.1718 25.3022 26.2116 25.3017 26.2511 25.3005C28.9922 25.2364 31.2019 22.9872 31.2019 20.2313V20.11C31.2019 20.046 31.1498 19.9938 31.0858 19.9938H25.997C25.933 19.9938 25.8809 19.9416 25.8809 19.8776V16.7341C25.8809 16.67 25.933 16.6179 25.997 16.6179H34.4757C34.5397 16.6179 34.5919 16.67 34.5919 16.7341V16.7349Z" fill="black"/>
<path d="M25.8808 8.02239V11.1804C25.8808 11.2444 25.8286 11.2966 25.7646 11.2966H21.8849V11.3016C19.2655 11.4971 17.1948 13.6904 17.1948 16.359V22.306C17.1948 22.37 17.1426 22.4222 17.0786 22.4222H13.9206C13.8566 22.4222 13.8044 22.37 13.8044 22.306V8.02324C13.8044 7.9592 13.8566 7.90704 13.9206 7.90704H17.0786C17.1426 7.90704 17.1948 7.9592 17.1948 8.02324V9.36199C17.1948 9.45613 17.3008 9.51126 17.3776 9.45656C18.6616 8.54398 20.2107 7.98125 21.8849 7.90704H25.7646C25.8286 7.90704 25.8808 7.9592 25.8808 8.02324V8.02239Z" fill="black"/>
<path d="M55.8436 28.6777H53.3438V7.90601H61.6167C63.4419 7.90601 64.865 8.41191 65.887 9.42371C66.9086 10.4355 67.4196 11.8939 67.4196 13.7983C67.4196 15.3262 67.0672 16.581 66.3632 17.5627C65.6589 18.5448 64.6225 19.1949 63.2536 19.5121L68.0149 28.6777H65.1877L60.694 19.75H55.8432V28.6777H55.8436ZM61.6167 17.6076C62.6086 17.6076 63.377 17.3502 63.9232 16.8337C64.4685 16.3181 64.7416 15.584 64.7416 14.6316V13.0842C64.7416 12.1318 64.4685 11.3981 63.9232 10.8821C63.3774 10.3664 62.6086 10.1081 61.6167 10.1081H55.8436V17.6072H61.6167V17.6076Z" fill="black"/>
<path d="M77.4783 29.0346C76.4267 29.0346 75.4793 28.8459 74.6363 28.4694C73.7928 28.0928 73.069 27.5521 72.4638 26.8473C71.8583 26.1434 71.3927 25.2999 71.0653 24.3178C70.7379 23.3357 70.5742 22.2302 70.5742 20.9996C70.5742 19.7689 70.7379 18.6884 71.0653 17.6961C71.3927 16.7043 71.8587 15.8561 72.4638 15.1518C73.069 14.4478 73.7928 13.9072 74.6363 13.5297C75.4793 13.1532 76.4267 12.9645 77.4783 12.9645C78.53 12.9645 79.4324 13.1523 80.2457 13.5281C81.0591 13.9038 81.7533 14.4232 82.3287 15.0852C82.9037 15.7472 83.3452 16.5334 83.6531 17.4425C83.9605 18.3522 84.1144 19.3504 84.1144 20.4377V21.5648H73.0736V22.2789C73.0736 22.9337 73.1779 23.5439 73.3862 24.1092C73.5944 24.6745 73.8921 25.1655 74.2788 25.5824C74.6655 25.9988 75.1418 26.3262 75.7075 26.5645C76.2727 26.8024 76.9126 26.9215 77.6268 26.9215C78.5987 26.9215 79.4468 26.6938 80.1711 26.2371C80.895 25.7808 81.4556 25.1261 81.8525 24.2729L83.5487 25.5009C83.0526 26.5594 82.2787 27.4126 81.2274 28.061C80.1758 28.7098 78.9256 29.0342 77.4779 29.0342L77.4783 29.0346ZM77.4783 14.9588C76.8236 14.9588 76.2286 15.0725 75.6926 15.2993C75.157 15.5262 74.6957 15.8468 74.3089 16.2607C73.9222 16.6746 73.6194 17.1627 73.4014 17.7245C73.183 18.2868 73.074 18.903 73.074 19.5734V19.7804H81.5552V19.4547C81.5552 18.0943 81.1833 17.0053 80.4391 16.1869C79.6953 15.3685 78.7081 14.9593 77.4779 14.9593L77.4783 14.9588Z" fill="black"/>
<path d="M101.732 25.6703H101.642C101.384 26.6346 100.754 27.4365 99.7528 28.0755C98.7508 28.715 97.4561 29.0348 95.8693 29.0348C94.5992 29.0348 93.4335 28.8015 92.3725 28.3355C91.3111 27.8695 90.4032 27.185 89.6496 26.2822C88.8952 25.3798 88.3053 24.2586 87.8792 22.9194C87.4521 21.5802 87.2393 20.0379 87.2393 18.2921C87.2393 16.5462 87.4475 15.0336 87.8643 13.6944C88.2807 12.3552 88.8761 11.2349 89.65 10.3316C90.4239 9.42923 91.356 8.73971 92.4476 8.26349C93.5382 7.78727 94.7489 7.54938 96.0784 7.54938C97.9429 7.54938 99.5005 7.96156 100.751 8.78424C102 9.60776 102.963 10.7035 103.637 12.0724L101.584 13.3221C101.108 12.2111 100.398 11.3383 99.456 10.7031C98.5133 10.0683 97.3878 9.75067 96.0784 9.75067C95.1658 9.75067 94.3325 9.9152 93.5785 10.2434C92.8241 10.5716 92.1749 11.0347 91.6291 11.6318C91.0834 12.2293 90.6618 12.9464 90.3646 13.7822C90.0669 14.618 89.918 15.5539 89.918 16.5891V19.9637C89.918 20.9988 90.0669 21.9394 90.3646 22.7858C90.6623 23.6323 91.0834 24.3536 91.6291 24.9507C92.1745 25.5482 92.844 26.0112 93.6379 26.3394C94.4313 26.6677 95.324 26.8318 96.3163 26.8318C97.0304 26.8318 97.7097 26.7372 98.3547 26.5481C98.9993 26.359 99.5646 26.0748 100.051 25.6962C100.537 25.3175 100.919 24.8442 101.197 24.276C101.475 23.7077 101.613 23.0356 101.613 22.2579V20.1953H97.0304V17.9931H104.054V28.6764H101.732V25.669L101.732 25.6703Z" fill="black"/>
<path d="M114.498 29.0346C113.446 29.0346 112.499 28.8459 111.656 28.4694C110.813 28.0928 110.089 27.5521 109.484 26.8473C108.878 26.1434 108.412 25.2999 108.085 24.3178C107.758 23.3357 107.594 22.2302 107.594 20.9996C107.594 19.7689 107.758 18.6884 108.085 17.6961C108.412 16.7043 108.878 15.8561 109.484 15.1518C110.089 14.4478 110.813 13.9072 111.656 13.5297C112.499 13.1532 113.446 12.9645 114.498 12.9645C115.55 12.9645 116.452 13.1523 117.266 13.5281C118.079 13.9038 118.773 14.4232 119.348 15.0852C119.924 15.7472 120.365 16.5334 120.673 17.4425C120.98 18.3522 121.134 19.3504 121.134 20.4377V21.5648H110.093V22.2789C110.093 22.9337 110.198 23.5439 110.406 24.1092C110.614 24.6745 110.912 25.1655 111.299 25.5824C111.685 25.9988 112.162 26.3262 112.727 26.5645C113.293 26.8024 113.932 26.9215 114.647 26.9215C115.618 26.9215 116.467 26.6938 117.191 26.2371C117.915 25.7808 118.475 25.1261 118.872 24.2729L120.569 25.5009C120.072 26.5594 119.298 27.4126 118.247 28.061C117.196 28.7098 115.945 29.0342 114.498 29.0342L114.498 29.0346ZM114.498 14.9588C113.843 14.9588 113.248 15.0725 112.712 15.2993C112.177 15.5262 111.715 15.8468 111.329 16.2607C110.942 16.6746 110.639 17.1627 110.421 17.7245C110.203 18.2868 110.094 18.903 110.094 19.5734V19.7804H118.575V19.4547C118.575 18.0943 118.203 17.0053 117.459 16.1869C116.715 15.3685 115.728 14.9593 114.498 14.9593L114.498 14.9588Z" fill="black"/>
<path d="M125.063 28.6776V13.322H127.443V15.7934H127.563C127.939 14.9296 128.47 14.2417 129.154 13.7312C129.839 13.2206 130.757 12.9649 131.907 12.9649C133.494 12.9649 134.749 13.4759 135.671 14.4975C136.594 15.5194 137.055 16.9629 137.055 18.8275V28.678H134.674V19.224C134.674 16.46 133.514 15.0784 131.192 15.0784C130.716 15.0784 130.255 15.1382 129.809 15.2574C129.362 15.377 128.961 15.5559 128.604 15.7947C128.247 16.0334 127.964 16.3362 127.755 16.7043C127.547 17.0719 127.443 17.5045 127.443 18.0015V28.6784H125.062L125.063 28.6776Z" fill="black"/>
</g>
<defs>
<clipPath id="clip0_239_1262">
<rect width="150" height="33" fill="white" transform="translate(0 0.5)"/>
</clipPath>
</defs>
</svg>
