<svg width="106" height="32" viewBox="0 0 106 32" fill="none" xmlns="http://www.w3.org/2000/svg">
<path d="M12.5298 21.8148H10.3235C10.2787 21.8148 10.2424 21.8512 10.2424 21.896V24.0883C10.2424 24.1331 10.2787 24.1695 10.3235 24.1695H12.5298C12.5746 24.1695 12.611 24.1331 12.611 24.0883V21.896C12.611 21.8512 12.5746 21.8148 12.5298 21.8148Z" fill="#EF9F28"/>
<path d="M32.4204 15.7253H30.2142C30.1694 15.7253 30.133 15.7617 30.133 15.8065V17.9988C30.133 18.0437 30.1694 18.08 30.2142 18.08H32.4204C32.4653 18.08 32.5016 18.0437 32.5016 17.9988V15.8065C32.5016 15.7617 32.4653 15.7253 32.4204 15.7253Z" fill="#EF9F28"/>
<path d="M24.7662 10.5164V13.6252C24.7662 13.6699 24.7298 13.7064 24.685 13.7064H22.4785C22.4338 13.7064 22.3973 13.6699 22.3973 13.6252V12.885C22.3973 12.4041 22.0074 12.0145 21.5268 12.0145H20.7878C20.7431 12.0145 20.7067 11.9781 20.7067 11.9333V9.72681C20.7067 9.68207 20.7431 9.64563 20.7878 9.64563H23.8954C24.3763 9.64563 24.7659 10.0356 24.7659 10.5161L24.7662 10.5164Z" fill="#EF9F28"/>
<path d="M24.7662 15.8148V18.1772C24.7662 21.4868 22.0833 24.1698 18.7736 24.1698H14.7194C14.6747 24.1698 14.6382 24.1333 14.6382 24.0886V21.8821C14.6382 21.8373 14.6747 21.8009 14.7194 21.8009H18.8548C18.883 21.8009 18.9108 21.8006 18.9384 21.7997C20.8536 21.755 22.3976 20.1834 22.3976 18.2578V18.173C22.3976 18.1283 22.3612 18.0918 22.3164 18.0918H18.7609C18.7161 18.0918 18.6797 18.0554 18.6797 18.0107V15.8142C18.6797 15.7695 18.7161 15.733 18.7609 15.733H24.685C24.7298 15.733 24.7662 15.7695 24.7662 15.8142V15.8148Z" fill="#EF9F28"/>
<path d="M18.6797 9.72711V11.9336C18.6797 11.9784 18.6433 12.0148 18.5985 12.0148H15.8877V12.0184C14.0575 12.155 12.6107 13.6874 12.6107 15.552V19.7073C12.6107 19.752 12.5742 19.7884 12.5295 19.7884H10.323C10.2782 19.7884 10.2418 19.752 10.2418 19.7073V9.7277C10.2418 9.68296 10.2782 9.64651 10.323 9.64651H12.5295C12.5742 9.64651 12.6107 9.68296 12.6107 9.7277V10.6631C12.6107 10.7289 12.6847 10.7674 12.7384 10.7292C13.6355 10.0916 14.7179 9.69837 15.8877 9.64651H18.5985C18.6433 9.64651 18.6797 9.68296 18.6797 9.7277V9.72711Z" fill="#EF9F28"/>
<path d="M39.6151 24.1594H37.8684V9.6459H43.6489C44.9241 9.6459 45.9185 9.99939 46.6326 10.7063C47.3464 11.4133 47.7034 12.4323 47.7034 13.7629C47.7034 14.8305 47.4572 15.7072 46.9653 16.3932C46.4732 17.0794 45.749 17.5336 44.7926 17.7552L48.1194 24.1594H46.144L43.0041 17.9215H39.6148V24.1594H39.6151ZM43.6489 16.4246C44.3419 16.4246 44.8788 16.2447 45.2604 15.8838C45.6415 15.5235 45.8323 15.0106 45.8323 14.3452V13.264C45.8323 12.5985 45.6415 12.0859 45.2604 11.7253C44.8791 11.365 44.3419 11.1846 43.6489 11.1846H39.6151V16.4243H43.6489V16.4246Z" fill="#EF9F28"/>
<path d="M54.7315 24.4089C53.9967 24.4089 53.3348 24.277 52.7458 24.0139C52.1564 23.7508 51.6507 23.373 51.2278 22.8806C50.8047 22.3887 50.4794 21.7994 50.2507 21.1132C50.0219 20.4269 49.9075 19.6545 49.9075 18.7946C49.9075 17.9348 50.0219 17.1798 50.2507 16.4865C50.4794 15.7935 50.805 15.2009 51.2278 14.7087C51.6507 14.2169 52.1564 13.8391 52.7458 13.5754C53.3348 13.3123 53.9967 13.1804 54.7315 13.1804C55.4664 13.1804 56.0969 13.3117 56.6652 13.5742C57.2335 13.8367 57.7185 14.1997 58.1206 14.6622C58.5224 15.1247 58.8308 15.674 59.0459 16.3093C59.2607 16.9449 59.3683 17.6423 59.3683 18.4021V19.1896H51.6539V19.6886C51.6539 20.146 51.7268 20.5724 51.8723 20.9674C52.0178 21.3623 52.2258 21.7055 52.496 21.9967C52.7662 22.2877 53.099 22.5164 53.4942 22.6829C53.8892 22.8492 54.3363 22.9324 54.8353 22.9324C55.5144 22.9324 56.107 22.7733 56.613 22.4542C57.1188 22.1354 57.5105 21.6779 57.7878 21.0818L58.973 21.9398C58.6264 22.6794 58.0856 23.2755 57.3511 23.7286C56.6163 24.1819 55.7428 24.4086 54.7313 24.4086L54.7315 24.4089ZM54.7315 14.5739C54.2741 14.5739 53.8584 14.6533 53.4838 14.8118C53.1096 14.9703 52.7872 15.1943 52.517 15.4835C52.2468 15.7727 52.0353 16.1138 51.883 16.5063C51.7304 16.8992 51.6542 17.3298 51.6542 17.7982V17.9428H57.5801V17.7152C57.5801 16.7647 57.3203 16.0038 56.8003 15.432C56.2806 14.8601 55.5908 14.5742 54.7313 14.5742L54.7315 14.5739Z" fill="#EF9F28"/>
<path d="M71.6779 22.0581H71.6154C71.435 22.7318 70.995 23.2921 70.2951 23.7387C69.595 24.1855 68.6904 24.4089 67.5816 24.4089C66.6942 24.4089 65.8797 24.2459 65.1384 23.9203C64.3967 23.5947 63.7624 23.1164 63.2358 22.4856C62.7087 21.8551 62.2966 21.0717 61.9988 20.136C61.7004 19.2003 61.5517 18.1227 61.5517 16.9028C61.5517 15.6829 61.6972 14.6261 61.9884 13.6904C62.2794 12.7547 62.6954 11.9718 63.2361 11.3407C63.7769 10.7102 64.4281 10.2284 65.1908 9.89569C65.9529 9.56295 66.7988 9.39673 67.7277 9.39673C69.0305 9.39673 70.1188 9.68473 70.9923 10.2595C71.8655 10.835 72.5378 11.6006 73.0092 12.557L71.5745 13.4302C71.2418 12.6539 70.7461 12.0441 70.0877 11.6003C69.429 11.1567 68.6427 10.9348 67.7277 10.9348C67.0901 10.9348 66.5078 11.0498 65.981 11.2791C65.4539 11.5084 65.0003 11.832 64.619 12.2492C64.2376 12.6667 63.9431 13.1677 63.7354 13.7517C63.5274 14.3357 63.4234 14.9896 63.4234 15.7129V18.0708C63.4234 18.7941 63.5274 19.4512 63.7354 20.0427C63.9434 20.6341 64.2376 21.1381 64.619 21.5552C65 21.9727 65.4678 22.2963 66.0225 22.5256C66.5769 22.7549 67.2006 22.8696 67.8939 22.8696C68.3929 22.8696 68.8676 22.8035 69.3182 22.6714C69.7686 22.5392 70.1636 22.3407 70.5034 22.0761C70.843 21.8115 71.1096 21.4809 71.304 21.0838C71.4981 20.6868 71.595 20.2172 71.595 19.6738V18.2326H68.3929V16.6939H73.3001V24.1585H71.6782V22.0572L71.6779 22.0581Z" fill="#EF9F28"/>
<path d="M80.5979 24.4089C79.8631 24.4089 79.2012 24.277 78.6121 24.0139C78.0228 23.7508 77.517 23.373 77.0942 22.8806C76.6711 22.3887 76.3458 21.7994 76.117 21.1132C75.8883 20.4269 75.7739 19.6545 75.7739 18.7946C75.7739 17.9348 75.8883 17.1798 76.117 16.4865C76.3458 15.7935 76.6714 15.2009 77.0942 14.7087C77.517 14.2169 78.0228 13.8391 78.6121 13.5754C79.2012 13.3123 79.8631 13.1804 80.5979 13.1804C81.3327 13.1804 81.9633 13.3117 82.5315 13.5742C83.0998 13.8367 83.5849 14.1997 83.987 14.6622C84.3887 15.1247 84.6972 15.674 84.9123 16.3093C85.1271 16.9449 85.2347 17.6423 85.2347 18.4021V19.1896H77.5203V19.6886C77.5203 20.146 77.5932 20.5724 77.7387 20.9674C77.8841 21.3623 78.0921 21.7055 78.3624 21.9967C78.6326 22.2877 78.9653 22.5164 79.3606 22.6829C79.7555 22.8492 80.2027 22.9324 80.7016 22.9324C81.3807 22.9324 81.9733 22.7733 82.4794 22.4542C82.9852 22.1354 83.3769 21.6779 83.6542 21.0818L84.8394 21.9398C84.4927 22.6794 83.952 23.2755 83.2175 23.7286C82.4827 24.1819 81.6092 24.4086 80.5976 24.4086L80.5979 24.4089ZM80.5979 14.5739C80.1404 14.5739 79.7247 14.6533 79.3502 14.8118C78.976 14.9703 78.6536 15.1943 78.3834 15.4835C78.1132 15.7727 77.9016 16.1138 77.7493 16.5063C77.5967 16.8992 77.5206 17.3298 77.5206 17.7982V17.9428H83.4465V17.7152C83.4465 16.7647 83.1867 16.0038 82.6667 15.432C82.147 14.8601 81.4572 14.5742 80.5976 14.5742L80.5979 14.5739Z" fill="#EF9F28"/>
<path d="M87.9795 24.1594V13.4302H89.643V15.157H89.7262C89.9893 14.5535 90.3603 14.0729 90.8385 13.7161C91.3167 13.3594 91.9579 13.1807 92.7618 13.1807C93.8705 13.1807 94.7476 13.5378 95.392 14.2515C96.0364 14.9656 96.3588 15.9742 96.3588 17.277V24.1597H94.6954V17.5541C94.6954 15.6228 93.8844 14.6575 92.2625 14.6575C91.9298 14.6575 91.6074 14.6992 91.2957 14.7825C90.9837 14.8661 90.7031 14.9911 90.4536 15.1579C90.2041 15.3247 90.0065 15.5363 89.861 15.7935C89.7155 16.0504 89.6427 16.3526 89.6427 16.6998V24.16H87.9793L87.9795 24.1594Z" fill="#EF9F28"/>
</svg>
