<svg width="33" height="32" viewBox="0 0 33 32" fill="none" xmlns="http://www.w3.org/2000/svg">
<g clip-path="url(#clip0_239_1295)">
<path d="M12.5001 29.3334C13.2365 29.3334 13.8334 28.7364 13.8334 28C13.8334 27.2636 13.2365 26.6667 12.5001 26.6667C11.7637 26.6667 11.1667 27.2636 11.1667 28C11.1667 28.7364 11.7637 29.3334 12.5001 29.3334Z" stroke="black" stroke-width="2" stroke-linecap="round" stroke-linejoin="round"/>
<path d="M27.1666 29.3334C27.903 29.3334 28.4999 28.7364 28.4999 28C28.4999 27.2636 27.903 26.6667 27.1666 26.6667C26.4302 26.6667 25.8333 27.2636 25.8333 28C25.8333 28.7364 26.4302 29.3334 27.1666 29.3334Z" stroke="black" stroke-width="2" stroke-linecap="round" stroke-linejoin="round"/>
<path d="M1.83325 1.33331H7.16659L10.7399 19.1866C10.8618 19.8005 11.1958 20.3519 11.6833 20.7444C12.1708 21.1368 12.7808 21.3453 13.4066 21.3333H26.3666C26.9923 21.3453 27.6023 21.1368 28.0899 20.7444C28.5774 20.3519 28.9113 19.8005 29.0333 19.1866L31.1666 7.99998H8.49992" stroke="black" stroke-width="2" stroke-linecap="round" stroke-linejoin="round"/>
</g>
<defs>
<clipPath id="clip0_239_1295">
<rect width="32" height="32" fill="white" transform="translate(0.5)"/>
</clipPath>
</defs>
</svg>
